<mxfile host="app.diagrams.net" agent="Mozilla/5.0 (X11; Linux x86_64) AppleWebKit/537.36 (KHTML, like Gecko) Chrome/132.0.0.0 Safari/537.36" version="26.0.11">
  <diagram name="Page-1" id="dHOpfDFnj4CsRJ2VESN7">
    <mxGraphModel dx="2955" dy="2322" grid="1" gridSize="10" guides="1" tooltips="1" connect="1" arrows="1" fold="1" page="1" pageScale="1" pageWidth="850" pageHeight="1100" math="0" shadow="0">
      <root>
        <mxCell id="0" />
        <mxCell id="1" parent="0" />
        <mxCell id="I4IzJIuVfOhWZTr85-AW-13" value="&lt;font style=&quot;font-size: 20px;&quot;&gt;&lt;b&gt;Sondage&lt;/b&gt;&lt;/font&gt;" style="html=1;whiteSpace=wrap;verticalAlign=top;" parent="1" vertex="1">
          <mxGeometry x="20" y="-115" width="1040" height="780" as="geometry" />
        </mxCell>
        <mxCell id="I4IzJIuVfOhWZTr85-AW-1" value="Utilisateur" style="shape=umlActor;verticalLabelPosition=bottom;verticalAlign=top;html=1;outlineConnect=0;perimeterSpacing=20;" parent="1" vertex="1">
          <mxGeometry x="-72" y="570" width="30" height="60" as="geometry" />
        </mxCell>
        <mxCell id="I4IzJIuVfOhWZTr85-AW-30" value="Créer un sondage" style="ellipse;whiteSpace=wrap;html=1;" parent="1" vertex="1">
          <mxGeometry x="310" y="170" width="140" height="70" as="geometry" />
        </mxCell>
        <mxCell id="I4IzJIuVfOhWZTr85-AW-32" value="Admin, staff,&lt;div&gt;formateurs et délégués&lt;/div&gt;" style="shape=umlActor;verticalLabelPosition=bottom;verticalAlign=top;html=1;outlineConnect=0;perimeterSpacing=20;" parent="1" vertex="1">
          <mxGeometry x="-72" y="175" width="30" height="60" as="geometry" />
        </mxCell>
        <mxCell id="I4IzJIuVfOhWZTr85-AW-33" value="Créer un sondage standardisé" style="ellipse;whiteSpace=wrap;html=1;" parent="1" vertex="1">
          <mxGeometry x="270" y="330" width="140" height="70" as="geometry" />
        </mxCell>
        <mxCell id="I4IzJIuVfOhWZTr85-AW-34" value="Créer n réponses" style="ellipse;whiteSpace=wrap;html=1;" parent="1" vertex="1">
          <mxGeometry x="600" y="70" width="140" height="70" as="geometry" />
        </mxCell>
        <mxCell id="I4IzJIuVfOhWZTr85-AW-35" value="Créer une ou n question" style="ellipse;whiteSpace=wrap;html=1;" parent="1" vertex="1">
          <mxGeometry x="600" y="-30" width="140" height="70" as="geometry" />
        </mxCell>
        <mxCell id="I4IzJIuVfOhWZTr85-AW-38" value="&lt;div&gt;&lt;br&gt;&lt;/div&gt;" style="endArrow=block;endSize=16;endFill=0;html=1;rounded=0;" parent="1" target="I4IzJIuVfOhWZTr85-AW-1" edge="1">
          <mxGeometry width="160" relative="1" as="geometry">
            <mxPoint x="-57" y="280" as="sourcePoint" />
            <mxPoint x="-87" y="260" as="targetPoint" />
          </mxGeometry>
        </mxCell>
        <mxCell id="I4IzJIuVfOhWZTr85-AW-39" value="&amp;lt;&amp;lt;include&amp;gt;&amp;gt;" style="html=1;verticalAlign=bottom;labelBackgroundColor=none;endArrow=open;endFill=0;dashed=1;rounded=0;" parent="1" source="I4IzJIuVfOhWZTr85-AW-35" target="I4IzJIuVfOhWZTr85-AW-30" edge="1">
          <mxGeometry x="0.1202" y="-8" width="160" relative="1" as="geometry">
            <mxPoint x="440" y="320" as="sourcePoint" />
            <mxPoint x="600" y="320" as="targetPoint" />
            <mxPoint as="offset" />
          </mxGeometry>
        </mxCell>
        <mxCell id="I4IzJIuVfOhWZTr85-AW-40" value="&amp;lt;&amp;lt;include&amp;gt;&amp;gt;" style="html=1;verticalAlign=bottom;labelBackgroundColor=none;endArrow=open;endFill=0;dashed=1;rounded=0;" parent="1" source="I4IzJIuVfOhWZTr85-AW-34" target="I4IzJIuVfOhWZTr85-AW-30" edge="1">
          <mxGeometry x="-0.4" width="160" relative="1" as="geometry">
            <mxPoint x="440" y="320" as="sourcePoint" />
            <mxPoint x="600" y="320" as="targetPoint" />
            <mxPoint as="offset" />
          </mxGeometry>
        </mxCell>
        <mxCell id="I4IzJIuVfOhWZTr85-AW-41" value="Fermer un sondage" style="ellipse;whiteSpace=wrap;html=1;" parent="1" vertex="1">
          <mxGeometry x="60" y="70" width="140" height="70" as="geometry" />
        </mxCell>
        <mxCell id="I4IzJIuVfOhWZTr85-AW-42" value="&amp;lt;&amp;lt;extend&amp;gt;&amp;gt;" style="html=1;verticalAlign=bottom;labelBackgroundColor=none;endArrow=open;endFill=0;dashed=1;rounded=0;" parent="1" source="I4IzJIuVfOhWZTr85-AW-41" target="I4IzJIuVfOhWZTr85-AW-30" edge="1">
          <mxGeometry x="-0.0302" y="-11" width="160" relative="1" as="geometry">
            <mxPoint x="100" y="330" as="sourcePoint" />
            <mxPoint x="260" y="330" as="targetPoint" />
            <mxPoint as="offset" />
          </mxGeometry>
        </mxCell>
        <mxCell id="I4IzJIuVfOhWZTr85-AW-43" value="Supprimer un sondage" style="ellipse;whiteSpace=wrap;html=1;" parent="1" vertex="1">
          <mxGeometry x="60" y="-30" width="140" height="70" as="geometry" />
        </mxCell>
        <mxCell id="I4IzJIuVfOhWZTr85-AW-44" value="&amp;lt;&amp;lt;extend&amp;gt;&amp;gt;" style="html=1;verticalAlign=bottom;labelBackgroundColor=none;endArrow=open;endFill=0;dashed=1;rounded=0;" parent="1" source="I4IzJIuVfOhWZTr85-AW-43" target="I4IzJIuVfOhWZTr85-AW-30" edge="1">
          <mxGeometry x="-0.006" y="-7" width="160" relative="1" as="geometry">
            <mxPoint x="200" y="310" as="sourcePoint" />
            <mxPoint x="360" y="310" as="targetPoint" />
            <mxPoint as="offset" />
          </mxGeometry>
        </mxCell>
        <mxCell id="I4IzJIuVfOhWZTr85-AW-45" value="Choix unique ou multiple" style="ellipse;whiteSpace=wrap;html=1;" parent="1" vertex="1">
          <mxGeometry x="870" y="25" width="140" height="70" as="geometry" />
        </mxCell>
        <mxCell id="I4IzJIuVfOhWZTr85-AW-46" value="&amp;lt;&amp;lt;include&amp;gt;&amp;gt;" style="html=1;verticalAlign=bottom;labelBackgroundColor=none;endArrow=open;endFill=0;dashed=1;rounded=0;" parent="1" source="I4IzJIuVfOhWZTr85-AW-45" target="I4IzJIuVfOhWZTr85-AW-34" edge="1">
          <mxGeometry width="160" relative="1" as="geometry">
            <mxPoint x="150" y="250" as="sourcePoint" />
            <mxPoint x="310" y="250" as="targetPoint" />
          </mxGeometry>
        </mxCell>
        <mxCell id="I4IzJIuVfOhWZTr85-AW-48" value="Choisir si les réponses sont anonymes" style="ellipse;whiteSpace=wrap;html=1;" parent="1" vertex="1">
          <mxGeometry x="870" y="115" width="140" height="70" as="geometry" />
        </mxCell>
        <mxCell id="I4IzJIuVfOhWZTr85-AW-49" value="&amp;lt;&amp;lt;extend&amp;gt;&amp;gt;" style="html=1;verticalAlign=bottom;labelBackgroundColor=none;endArrow=open;endFill=0;dashed=1;rounded=0;" parent="1" source="I4IzJIuVfOhWZTr85-AW-48" target="I4IzJIuVfOhWZTr85-AW-34" edge="1">
          <mxGeometry x="-0.0776" y="25" width="160" relative="1" as="geometry">
            <mxPoint x="360" y="280" as="sourcePoint" />
            <mxPoint x="670" y="250" as="targetPoint" />
            <mxPoint y="-1" as="offset" />
          </mxGeometry>
        </mxCell>
        <mxCell id="I4IzJIuVfOhWZTr85-AW-50" value="Choix de la durée du sondage" style="ellipse;whiteSpace=wrap;html=1;" parent="1" vertex="1">
          <mxGeometry x="600" y="170" width="140" height="70" as="geometry" />
        </mxCell>
        <mxCell id="I4IzJIuVfOhWZTr85-AW-51" value="&amp;lt;&amp;lt;include&amp;gt;&amp;gt;" style="html=1;verticalAlign=bottom;labelBackgroundColor=none;endArrow=open;endFill=0;dashed=1;rounded=0;" parent="1" source="I4IzJIuVfOhWZTr85-AW-50" target="I4IzJIuVfOhWZTr85-AW-30" edge="1">
          <mxGeometry x="-0.0528" y="19" width="160" relative="1" as="geometry">
            <mxPoint x="480" y="360" as="sourcePoint" />
            <mxPoint x="640" y="360" as="targetPoint" />
            <mxPoint as="offset" />
          </mxGeometry>
        </mxCell>
        <mxCell id="I4IzJIuVfOhWZTr85-AW-53" value="Répondre au sondage" style="ellipse;whiteSpace=wrap;html=1;" parent="1" vertex="1">
          <mxGeometry x="60" y="565" width="140" height="70" as="geometry" />
        </mxCell>
        <mxCell id="I4IzJIuVfOhWZTr85-AW-57" value="" style="endArrow=none;html=1;rounded=0;" parent="1" source="I4IzJIuVfOhWZTr85-AW-1" target="I4IzJIuVfOhWZTr85-AW-53" edge="1">
          <mxGeometry width="50" height="50" relative="1" as="geometry">
            <mxPoint x="370" y="490" as="sourcePoint" />
            <mxPoint x="420" y="440" as="targetPoint" />
          </mxGeometry>
        </mxCell>
        <mxCell id="I4IzJIuVfOhWZTr85-AW-58" value="" style="endArrow=none;html=1;rounded=0;" parent="1" source="I4IzJIuVfOhWZTr85-AW-32" target="I4IzJIuVfOhWZTr85-AW-30" edge="1">
          <mxGeometry width="50" height="50" relative="1" as="geometry">
            <mxPoint x="370" y="480" as="sourcePoint" />
            <mxPoint x="420" y="430" as="targetPoint" />
          </mxGeometry>
        </mxCell>
        <mxCell id="I4IzJIuVfOhWZTr85-AW-60" value="&amp;lt;&amp;lt;extend&amp;gt;&amp;gt;" style="html=1;verticalAlign=bottom;labelBackgroundColor=none;endArrow=open;endFill=0;dashed=1;rounded=0;" parent="1" source="I4IzJIuVfOhWZTr85-AW-33" target="I4IzJIuVfOhWZTr85-AW-30" edge="1">
          <mxGeometry width="160" relative="1" as="geometry">
            <mxPoint x="310" y="450" as="sourcePoint" />
            <mxPoint x="320" y="100" as="targetPoint" />
          </mxGeometry>
        </mxCell>
        <mxCell id="I4IzJIuVfOhWZTr85-AW-61" value="Ajouter une titre" style="ellipse;whiteSpace=wrap;html=1;" parent="1" vertex="1">
          <mxGeometry x="420" y="-30" width="140" height="70" as="geometry" />
        </mxCell>
        <mxCell id="I4IzJIuVfOhWZTr85-AW-62" value="&amp;lt;&amp;lt;extend&amp;gt;&amp;gt;" style="html=1;verticalAlign=bottom;labelBackgroundColor=none;endArrow=open;endFill=0;dashed=1;rounded=0;" parent="1" source="I4IzJIuVfOhWZTr85-AW-61" target="I4IzJIuVfOhWZTr85-AW-30" edge="1">
          <mxGeometry width="160" relative="1" as="geometry">
            <mxPoint x="310" y="330" as="sourcePoint" />
            <mxPoint x="320" y="270" as="targetPoint" />
          </mxGeometry>
        </mxCell>
        <mxCell id="I4IzJIuVfOhWZTr85-AW-63" value="Choisir un modèle de sondage standardisé" style="ellipse;whiteSpace=wrap;html=1;" parent="1" vertex="1">
          <mxGeometry x="240" y="-30" width="140" height="70" as="geometry" />
        </mxCell>
        <mxCell id="I4IzJIuVfOhWZTr85-AW-64" value="&amp;lt;&amp;lt;extend&amp;gt;&amp;gt;" style="html=1;verticalAlign=bottom;labelBackgroundColor=none;endArrow=open;endFill=0;dashed=1;rounded=0;" parent="1" source="I4IzJIuVfOhWZTr85-AW-63" target="I4IzJIuVfOhWZTr85-AW-30" edge="1">
          <mxGeometry width="160" relative="1" as="geometry">
            <mxPoint x="310" y="330" as="sourcePoint" />
            <mxPoint x="470" y="330" as="targetPoint" />
          </mxGeometry>
        </mxCell>
        <mxCell id="I4IzJIuVfOhWZTr85-AW-65" value="Personnaliser&amp;nbsp;&lt;span style=&quot;background-color: transparent; color: light-dark(rgb(0, 0, 0), rgb(255, 255, 255));&quot;&gt;le&lt;/span&gt;&lt;div&gt;&lt;span style=&quot;background-color: transparent; color: light-dark(rgb(0, 0, 0), rgb(255, 255, 255));&quot;&gt;sondage standardisé&lt;/span&gt;&lt;/div&gt;" style="ellipse;whiteSpace=wrap;html=1;align=center;" parent="1" vertex="1">
          <mxGeometry x="60" y="240" width="140" height="70" as="geometry" />
        </mxCell>
        <mxCell id="I4IzJIuVfOhWZTr85-AW-66" value="&amp;lt;&amp;lt;extend&amp;gt;&amp;gt;" style="html=1;verticalAlign=bottom;labelBackgroundColor=none;endArrow=open;endFill=0;dashed=1;rounded=0;" parent="1" source="I4IzJIuVfOhWZTr85-AW-65" target="I4IzJIuVfOhWZTr85-AW-33" edge="1">
          <mxGeometry width="160" relative="1" as="geometry">
            <mxPoint x="410" y="280" as="sourcePoint" />
            <mxPoint x="570" y="280" as="targetPoint" />
          </mxGeometry>
        </mxCell>
        <mxCell id="I4IzJIuVfOhWZTr85-AW-68" value="Supprimer un sondage standarsisé" style="ellipse;whiteSpace=wrap;html=1;" parent="1" vertex="1">
          <mxGeometry x="60" y="330" width="140" height="70" as="geometry" />
        </mxCell>
        <mxCell id="I4IzJIuVfOhWZTr85-AW-69" value="&amp;lt;&amp;lt;extend&amp;gt;&amp;gt;" style="html=1;verticalAlign=bottom;labelBackgroundColor=none;endArrow=open;endFill=0;dashed=1;rounded=0;" parent="1" source="I4IzJIuVfOhWZTr85-AW-68" target="I4IzJIuVfOhWZTr85-AW-33" edge="1">
          <mxGeometry width="160" relative="1" as="geometry">
            <mxPoint x="410" y="280" as="sourcePoint" />
            <mxPoint x="570" y="280" as="targetPoint" />
          </mxGeometry>
        </mxCell>
        <mxCell id="I4IzJIuVfOhWZTr85-AW-70" value="Assignation du sondage à des rôles" style="ellipse;whiteSpace=wrap;html=1;" parent="1" vertex="1">
          <mxGeometry x="600" y="270" width="140" height="70" as="geometry" />
        </mxCell>
        <mxCell id="I4IzJIuVfOhWZTr85-AW-71" value="&amp;lt;&amp;lt;include&amp;gt;&amp;gt;" style="html=1;verticalAlign=bottom;labelBackgroundColor=none;endArrow=open;endFill=0;dashed=1;rounded=0;" parent="1" source="I4IzJIuVfOhWZTr85-AW-70" target="I4IzJIuVfOhWZTr85-AW-30" edge="1">
          <mxGeometry x="-0.0896" y="21" width="160" relative="1" as="geometry">
            <mxPoint x="470" y="330" as="sourcePoint" />
            <mxPoint x="630" y="330" as="targetPoint" />
            <mxPoint as="offset" />
          </mxGeometry>
        </mxCell>
        <mxCell id="I4IzJIuVfOhWZTr85-AW-72" value="Bot" style="shape=umlActor;verticalLabelPosition=bottom;verticalAlign=top;html=1;perimeterSpacing=20;" parent="1" vertex="1">
          <mxGeometry x="1120" y="425" width="30" height="60" as="geometry" />
        </mxCell>
        <mxCell id="I4IzJIuVfOhWZTr85-AW-73" value="Envoyer un sondage" style="ellipse;whiteSpace=wrap;html=1;" parent="1" vertex="1">
          <mxGeometry x="470" y="420" width="140" height="70" as="geometry" />
        </mxCell>
        <mxCell id="I4IzJIuVfOhWZTr85-AW-74" value="" style="endArrow=none;html=1;rounded=0;" parent="1" source="I4IzJIuVfOhWZTr85-AW-72" target="I4IzJIuVfOhWZTr85-AW-73" edge="1">
          <mxGeometry width="50" height="50" relative="1" as="geometry">
            <mxPoint x="590" y="260" as="sourcePoint" />
            <mxPoint x="640" y="210" as="targetPoint" />
          </mxGeometry>
        </mxCell>
        <mxCell id="I4IzJIuVfOhWZTr85-AW-75" value="Sélectionner un cannal" style="ellipse;whiteSpace=wrap;html=1;" parent="1" vertex="1">
          <mxGeometry x="470" y="565" width="140" height="70" as="geometry" />
        </mxCell>
        <mxCell id="Z-TAEeEMXC8AkxihcwLK-4" value="&amp;lt;&amp;lt;include&amp;gt;&amp;gt;" style="html=1;verticalAlign=bottom;labelBackgroundColor=none;endArrow=open;endFill=0;dashed=1;rounded=0;" parent="1" source="I4IzJIuVfOhWZTr85-AW-75" target="I4IzJIuVfOhWZTr85-AW-73" edge="1">
          <mxGeometry x="0.1202" y="-8" width="160" relative="1" as="geometry">
            <mxPoint x="1116.1348458557031" y="479.71203915127217" as="sourcePoint" />
            <mxPoint x="890" y="580" as="targetPoint" />
            <mxPoint as="offset" />
          </mxGeometry>
        </mxCell>
        <mxCell id="Z-TAEeEMXC8AkxihcwLK-5" value="&amp;lt;&amp;lt;include&amp;gt;&amp;gt;" style="html=1;verticalAlign=bottom;labelBackgroundColor=none;endArrow=open;endFill=0;dashed=1;rounded=0;" parent="1" source="I4IzJIuVfOhWZTr85-AW-73" target="I4IzJIuVfOhWZTr85-AW-30" edge="1">
          <mxGeometry x="0.1202" y="-8" width="160" relative="1" as="geometry">
            <mxPoint x="826.1348458557031" y="449.71203915127217" as="sourcePoint" />
            <mxPoint x="610.1348458557031" y="507.71203915127217" as="targetPoint" />
            <mxPoint as="offset" />
          </mxGeometry>
        </mxCell>
        <mxCell id="Z-TAEeEMXC8AkxihcwLK-6" value="&amp;lt;&amp;lt;extend&amp;gt;&amp;gt;" style="html=1;verticalAlign=bottom;labelBackgroundColor=none;endArrow=open;endFill=0;dashed=1;rounded=0;" parent="1" source="I4IzJIuVfOhWZTr85-AW-53" target="I4IzJIuVfOhWZTr85-AW-73" edge="1">
          <mxGeometry width="160" relative="1" as="geometry">
            <mxPoint x="669.8806642035893" y="239.82615881633183" as="sourcePoint" />
            <mxPoint x="759.8806642035893" y="441.8261588163318" as="targetPoint" />
          </mxGeometry>
        </mxCell>
        <mxCell id="Z-TAEeEMXC8AkxihcwLK-7" value="Mentionner un ou n rôles" style="ellipse;whiteSpace=wrap;html=1;" parent="1" vertex="1">
          <mxGeometry x="310" y="564.9999999999999" width="140" height="70" as="geometry" />
        </mxCell>
        <mxCell id="Z-TAEeEMXC8AkxihcwLK-8" value="&amp;lt;&amp;lt;include&amp;gt;&amp;gt;" style="html=1;verticalAlign=bottom;labelBackgroundColor=none;endArrow=open;endFill=0;dashed=1;rounded=0;" parent="1" source="Z-TAEeEMXC8AkxihcwLK-7" target="I4IzJIuVfOhWZTr85-AW-73" edge="1">
          <mxGeometry x="0.1202" y="-8" width="160" relative="1" as="geometry">
            <mxPoint x="836.1348458557031" y="449.71203915127217" as="sourcePoint" />
            <mxPoint x="620.1348458557031" y="507.71203915127217" as="targetPoint" />
            <mxPoint as="offset" />
          </mxGeometry>
        </mxCell>
        <mxCell id="Z-TAEeEMXC8AkxihcwLK-11" value="Envoyer un rappel" style="ellipse;whiteSpace=wrap;html=1;" parent="1" vertex="1">
          <mxGeometry x="630" y="564.9999999999999" width="140" height="70" as="geometry" />
        </mxCell>
        <mxCell id="Z-TAEeEMXC8AkxihcwLK-12" value="" style="endArrow=none;html=1;rounded=0;" parent="1" source="I4IzJIuVfOhWZTr85-AW-72" target="Z-TAEeEMXC8AkxihcwLK-11" edge="1">
          <mxGeometry width="50" height="50" relative="1" as="geometry">
            <mxPoint x="900.0430504345513" y="469.6767065228255" as="sourcePoint" />
            <mxPoint x="740.0430504345513" y="473.6767065228255" as="targetPoint" />
          </mxGeometry>
        </mxCell>
        <mxCell id="Z-TAEeEMXC8AkxihcwLK-13" value="Selectionner un ou n utilisateur" style="ellipse;whiteSpace=wrap;html=1;" parent="1" vertex="1">
          <mxGeometry x="880" y="564.9999999999999" width="140" height="70" as="geometry" />
        </mxCell>
        <mxCell id="Z-TAEeEMXC8AkxihcwLK-14" value="&amp;lt;&amp;lt;include&amp;gt;&amp;gt;" style="html=1;verticalAlign=bottom;labelBackgroundColor=none;endArrow=open;endFill=0;dashed=1;rounded=0;" parent="1" source="Z-TAEeEMXC8AkxihcwLK-13" target="Z-TAEeEMXC8AkxihcwLK-11" edge="1">
          <mxGeometry x="0.0002" width="160" relative="1" as="geometry">
            <mxPoint x="926.1348458557031" y="549.7120391512722" as="sourcePoint" />
            <mxPoint x="710.1348458557031" y="607.7120391512722" as="targetPoint" />
            <mxPoint as="offset" />
          </mxGeometry>
        </mxCell>
        <mxCell id="Z-TAEeEMXC8AkxihcwLK-16" value="&amp;lt;&amp;lt;extend&amp;gt;&amp;gt;" style="html=1;verticalAlign=bottom;labelBackgroundColor=none;endArrow=open;endFill=0;dashed=1;rounded=0;" parent="1" source="Z-TAEeEMXC8AkxihcwLK-11" target="I4IzJIuVfOhWZTr85-AW-73" edge="1">
          <mxGeometry width="160" relative="1" as="geometry">
            <mxPoint x="759.8806642035893" y="319.8261588163318" as="sourcePoint" />
            <mxPoint x="849.8806642035893" y="521.8261588163318" as="targetPoint" />
          </mxGeometry>
        </mxCell>
        <mxCell id="j7xZyrcplq0U6fPnVzaw-1" value="Enregistrer un sondage standardisé" style="ellipse;whiteSpace=wrap;html=1;" vertex="1" parent="1">
          <mxGeometry x="60" y="414.9999999999999" width="140" height="70" as="geometry" />
        </mxCell>
        <mxCell id="j7xZyrcplq0U6fPnVzaw-2" value="&amp;lt;&amp;lt;extend&amp;gt;&amp;gt;" style="html=1;verticalAlign=bottom;labelBackgroundColor=none;endArrow=open;endFill=0;dashed=1;rounded=0;" edge="1" parent="1" source="j7xZyrcplq0U6fPnVzaw-1" target="I4IzJIuVfOhWZTr85-AW-33">
          <mxGeometry width="160" relative="1" as="geometry">
            <mxPoint x="-130" y="410" as="sourcePoint" />
            <mxPoint x="469.8806642035893" y="401.8261588163318" as="targetPoint" />
          </mxGeometry>
        </mxCell>
      </root>
    </mxGraphModel>
  </diagram>
</mxfile>
